<svg xmlns="http://www.w3.org/2000/svg" xmlns:xlink="http://www.w3.org/1999/xlink" version="1.1" x="0px" y="0px" viewBox="0 0 100 125" enable-background="new 0 0 100 100" xml:space="preserve"><polygon fill-rule="evenodd" clip-rule="evenodd" fill="#000000" points="88.5,28.2 68.4,59.9 68.5,22.3 "/><polygon fill-rule="evenodd" clip-rule="evenodd" fill="#000000" points="49.8,5.2 67.2,38.5 34.7,19.6 "/><polygon fill-rule="evenodd" clip-rule="evenodd" fill="#000000" points="67.8,38.3 67.8,22.3 60.8,24.5 "/><polygon fill-rule="evenodd" clip-rule="evenodd" fill="#000000" points="88.2,73.2 50.6,71.7 83.2,52.9 "/><polygon fill-rule="evenodd" clip-rule="evenodd" fill="#000000" points="69.1,60.3 82.8,52.3 77.4,47.4 "/><polygon fill-rule="evenodd" clip-rule="evenodd" fill="#000000" points="48.7,95.2 31.5,61.9 63.9,80.9 "/><polygon fill-rule="evenodd" clip-rule="evenodd" fill="#000000" points="50.5,72.2 64.2,80.2 65.8,73.1 "/><polygon fill-rule="evenodd" clip-rule="evenodd" fill="#000000" points="10.1,72 30.5,40.4 30.1,78 "/><polygon fill-rule="evenodd" clip-rule="evenodd" fill="#000000" points="30.9,62.1 30.8,78 37.8,75.8 "/><polygon fill-rule="evenodd" clip-rule="evenodd" fill="#000000" points="11,27 48.5,28.9 15.8,47.3 "/><polygon fill-rule="evenodd" clip-rule="evenodd" fill="#000000" points="30,40.1 16.1,47.9 21.5,52.9 "/><polygon fill-rule="evenodd" clip-rule="evenodd" fill="#000000" points="48.2,28.3 34.5,20.2 32.9,27.4 "/><text x="0" y="115" fill="#000000" font-size="5px" font-weight="bold" font-family="'Helvetica Neue', Helvetica, Arial-Unicode, Arial, Sans-serif">Created by misirlou</text><text x="0" y="120" fill="#000000" font-size="5px" font-weight="bold" font-family="'Helvetica Neue', Helvetica, Arial-Unicode, Arial, Sans-serif">from the Noun Project</text></svg>