<svg width="78" height="90" xmlns="http://www.w3.org/2000/svg">
 <g>
  <title>background</title>
  <rect x="-1" y="-1" width="80" height="92" id="canvas_background" fill="none"/>
 </g>

 <g>
  <title>Layer 1</title>
  <polygon fill-rule="evenodd" clip-rule="evenodd" fill="#000000" points="78.39999961853027,23.000000953674316 58.30000114440918,54.70000171661377 58.39999961853027,17.09999942779541 " id="svg_1"/>
  <polygon fill-rule="evenodd" clip-rule="evenodd" fill="#000000" points="39.69999885559082,0 57.09999656677246,33.30000019073486 24.600000381469727,14.40000057220459 " id="svg_2"/>
  <polygon fill-rule="evenodd" clip-rule="evenodd" fill="#000000" points="57.700002670288086,33.09999942779541 57.700002670288086,17.09999942779541 50.69999885559082,19.300000190734863 " id="svg_3"/>
  <polygon fill-rule="evenodd" clip-rule="evenodd" fill="#000000" points="78.09999656677246,67.99999713897705 40.49999809265137,66.49999713897705 73.09999656677246,47.70000171661377 " id="svg_4"/>
  <polygon fill-rule="evenodd" clip-rule="evenodd" fill="#000000" points="58.99999809265137,55.09999942779541 72.70000267028809,47.09999942779541 67.30000114440918,42.20000171661377 " id="svg_5"/>
  <polygon fill-rule="evenodd" clip-rule="evenodd" fill="#000000" points="38.60000038146973,89.99999713897705 21.399999618530273,56.70000171661377 53.80000114440918,75.70000171661377 " id="svg_6"/>
  <polygon fill-rule="evenodd" clip-rule="evenodd" fill="#000000" points="40.39999961853027,66.99999713897705 54.09999656677246,74.99999713897705 55.700002670288086,67.89999866485596 " id="svg_7"/>
  <polygon fill-rule="evenodd" clip-rule="evenodd" fill="#000000" points="0,66.80000019073486 20.399999618530273,35.20000171661377 20,72.80000019073486 " id="svg_8"/>
  <polygon fill-rule="evenodd" clip-rule="evenodd" fill="#000000" points="20.799999237060547,56.89999866485596 20.69999885559082,72.80000019073486 27.69999885559082,70.60000324249268 " id="svg_9"/>
  <polygon fill-rule="evenodd" clip-rule="evenodd" fill="#000000" points="0.8999996185302734,21.800000190734863 38.39999961853027,23.699999809265137 5.699999809265137,42.09999942779541 " id="svg_10"/>
  <polygon fill-rule="evenodd" clip-rule="evenodd" fill="#000000" points="19.899999618530273,34.89999866485596 6,42.70000171661377 11.399999618530273,47.70000171661377 " id="svg_11"/>
  <polygon fill-rule="evenodd" clip-rule="evenodd" fill="#000000" points="38.10000038146973,23.09999942779541 24.399999618530273,15.000000953674316 22.80000114440918,22.199999809265137 " id="svg_12"/>
 </g>
</svg>